HIERARCHY
ROOT Hips
{
	OFFSET -0.001795 -0.223333 0.028219
	CHANNELS 6 Xposition Yposition Zposition Zrotation Yrotation Xrotation
	JOINT LeftUpLeg
	{
		OFFSET 0.069520 -0.091406 -0.006815
		CHANNELS 3 Zrotation Yrotation Xrotation
		JOINT LeftLeg
		{
			OFFSET 0.034277 -0.375199 -0.004496
			CHANNELS 3 Zrotation Yrotation Xrotation
			JOINT LeftFoot
			{
				OFFSET -0.013596 -0.397961 -0.043693
				CHANNELS 3 Zrotation Yrotation Xrotation
				JOINT LeftToe
				{
					OFFSET 0.026358 -0.055791 0.119288
					CHANNELS 3 Zrotation Yrotation Xrotation
					End Site
					{
						OFFSET 0.000000 0.000000 0.000000
					}
				}
			}
		}
	}
	JOINT RightUpLeg
	{
		OFFSET -0.067670 -0.090522 -0.004320
		CHANNELS 3 Zrotation Yrotation Xrotation
		JOINT RightLeg
		{
			OFFSET -0.038290 -0.382569 -0.008850
			CHANNELS 3 Zrotation Yrotation Xrotation
			JOINT RightFoot
			{
				OFFSET 0.015774 -0.398415 -0.042312
				CHANNELS 3 Zrotation Yrotation Xrotation
				JOINT RightToe
				{
					OFFSET -0.025372 -0.048144 0.123348
					CHANNELS 3 Zrotation Yrotation Xrotation
					End Site
					{
						OFFSET 0.000000 0.000000 0.000000
					}
				}
			}
		}
	}
	JOINT Spine
	{
		OFFSET -0.002533 0.108963 -0.026696
		CHANNELS 3 Zrotation Yrotation Xrotation
		JOINT Spine1
		{
			OFFSET 0.005487 0.135180 0.001092
			CHANNELS 3 Zrotation Yrotation Xrotation
			JOINT Spine2
			{
				OFFSET 0.001457 0.052922 0.025425
				CHANNELS 3 Zrotation Yrotation Xrotation
				JOINT Neck
				{
					OFFSET -0.002778 0.213870 -0.042857
					CHANNELS 3 Zrotation Yrotation Xrotation
					JOINT Head
					{
						OFFSET 0.005152 0.064970 0.051349
						CHANNELS 3 Zrotation Yrotation Xrotation
						End Site
						{
							OFFSET 0.000000 0.000000 0.000000
						}
					}
				}
				JOINT LeftShoulder
				{
					OFFSET 0.078845 0.121749 -0.034090
					CHANNELS 3 Zrotation Yrotation Xrotation
					JOINT LeftArm
					{
						OFFSET 0.090977 0.030469 -0.008868
						CHANNELS 3 Zrotation Yrotation Xrotation
						JOINT LeftForeArm
						{
							OFFSET 0.259612 -0.012772 -0.027456
							CHANNELS 3 Zrotation Yrotation Xrotation
							JOINT LeftHand
							{
								OFFSET 0.249234 0.008986 -0.001171
								CHANNELS 3 Zrotation Yrotation Xrotation
								End Site
								{
									OFFSET 0.000000 0.000000 0.000000
								}
							}
						}
					}
				}
				JOINT RightShoulder
				{
					OFFSET -0.081759 0.118833 -0.038615
					CHANNELS 3 Zrotation Yrotation Xrotation
					JOINT RightArm
					{
						OFFSET -0.096012 0.032551 -0.009143
						CHANNELS 3 Zrotation Yrotation Xrotation
						JOINT RightForeArm
						{
							OFFSET -0.253742 -0.013329 -0.021401
							CHANNELS 3 Zrotation Yrotation Xrotation
							JOINT RightHand
							{
								OFFSET -0.255298 0.007772 -0.005559
								CHANNELS 3 Zrotation Yrotation Xrotation
								End Site
								{
									OFFSET 0.000000 0.000000 0.000000
								}
							}
						}
					}
				}
			}
		}
	}
}
MOTION
Frames: 11
Frame Time: 0.050000
-0.336454 0.133519 0.178575 2.060046 -18.344347 -82.054262 9.006913 2.020732 -14.497877 10.894359 -2.704888 10.153180 -10.043430 1.005872 44.111847 0.000000 0.000000 0.000000 -3.653022 0.534821 -9.043865 -0.718533 0.783296 9.841305 5.624818 -8.053909 36.088920 0.000000 0.000000 0.000000 2.466831 10.887513 -50.843272 1.414997 -0.606830 8.554057 -4.993919 -8.841302 52.274640 11.198241 -12.828852 -5.257317 0.000000 0.000000 0.000000 -4.986294 -6.367073 4.231752 -54.613994 0.077260 -11.346100 -33.272322 -65.331280 29.547046 0.000000 0.000000 0.000000 -7.572041 -5.152184 -1.473404 42.057845 -20.930584 -15.991311 65.685096 44.410205 22.414440 0.000000 0.000000 0.000000
-0.338186 0.135483 0.178807 1.200102 -18.022782 -82.289722 8.686536 1.997197 -16.557427 10.194397 -3.091446 15.824191 -11.295131 0.218380 44.015713 0.000000 0.000000 0.000000 -2.871071 0.810398 -10.180347 -1.634372 1.445721 14.261171 6.130735 -5.179998 30.214124 0.000000 0.000000 0.000000 1.379671 9.617331 -49.967409 1.112858 -0.468133 6.164002 -3.783716 -7.672627 53.790840 10.281834 -11.568420 -7.436937 0.000000 0.000000 0.000000 -2.257661 -7.185550 3.801782 -56.931380 -1.522335 -10.902508 -27.983917 -62.473406 24.507931 0.000000 0.000000 0.000000 -8.278724 -5.989636 -1.687784 44.362419 -19.856264 -16.730446 64.593777 42.077126 21.305451 0.000000 0.000000 0.000000
-0.340128 0.135304 0.180377 0.562734 -17.685895 -83.056229 7.860738 1.812051 -19.113032 8.661459 -3.071066 21.002886 -9.511473 2.307026 44.907013 0.000000 0.000000 0.000000 -3.140524 0.813976 -10.599208 -1.097398 1.557304 16.400078 5.903759 -5.143535 30.077414 0.000000 0.000000 0.000000 0.658319 8.460567 -48.338623 0.614030 -0.233191 4.386227 -2.571217 -7.082365 52.905792 8.821900 -9.960644 -7.413570 0.000000 0.000000 0.000000 2.183952 -7.462073 2.818173 -60.835410 -1.699410 -10.520472 -24.010212 -61.193605 21.182977 0.000000 0.000000 0.000000 -11.216830 -6.724043 -1.417955 46.502084 -21.516593 -18.264003 69.143818 38.644097 21.075648 0.000000 0.000000 0.000000
-0.341378 0.135728 0.183201 1.161853 -18.974802 -84.525400 8.970049 2.238634 -17.184580 8.495438 -2.951476 20.853334 -6.573074 4.399835 44.132238 0.000000 0.000000 0.000000 -1.310130 0.776586 -7.663262 -2.108203 1.303013 12.087943 4.632515 -7.877309 32.306978 0.000000 0.000000 0.000000 2.054789 9.513021 -47.206908 1.440422 -0.623787 4.023317 -3.893138 -5.974422 52.160786 7.756650 -8.672595 -9.050597 0.000000 0.000000 0.000000 4.505693 -6.657135 1.993160 -63.384234 -2.364730 -9.917831 -24.035267 -60.922146 21.254126 0.000000 0.000000 0.000000 -12.051570 -5.923492 -1.007503 50.265466 -21.776665 -20.126776 67.007642 38.098984 20.548948 0.000000 0.000000 0.000000
-0.342010 0.136918 0.187690 -0.297777 -16.771555 -84.028977 6.706357 1.296880 -14.275750 7.322880 -2.398465 16.284855 -6.441517 4.271676 42.395600 0.000000 0.000000 0.000000 -3.944560 0.153601 -6.176867 -1.597221 0.861955 8.959056 7.766967 -4.003384 33.764050 0.000000 0.000000 0.000000 -0.455217 7.360066 -48.587977 -0.043657 0.074733 5.114982 -0.921191 -6.369676 51.048439 7.624888 -7.686927 -12.821611 0.000000 0.000000 0.000000 5.680295 -5.099097 1.353439 -65.916261 -1.991629 -10.417548 -29.281014 -62.176857 25.087626 0.000000 0.000000 0.000000 -12.017518 -5.814325 -1.035629 53.276578 -20.654689 -20.806898 65.751764 38.192637 20.960085 0.000000 0.000000 0.000000
-0.341799 0.137597 0.192120 0.094654 -16.492558 -83.203124 5.841929 0.981138 -11.725527 8.129517 -2.022663 8.982356 -6.161795 4.701839 43.898925 0.000000 0.000000 0.000000 -3.073054 0.380119 -6.932304 -3.409583 0.911187 6.079454 8.797110 -4.166730 38.023470 0.000000 0.000000 0.000000 -0.431378 7.826908 -50.612012 -0.063717 0.075124 5.103015 -1.213869 -5.655280 51.064002 6.813720 -6.917461 -12.359917 0.000000 0.000000 0.000000 6.692250 -4.991682 1.185146 -67.258672 -0.016234 -11.742950 -30.224070 -62.262886 25.165306 0.000000 0.000000 0.000000 -11.620150 -6.213929 -1.266053 57.780069 -20.644358 -22.802895 62.535039 40.057700 22.114008 0.000000 0.000000 0.000000
-0.340837 0.140714 0.195612 -0.696916 -15.380027 -82.550157 4.850497 0.689341 -8.967953 8.132556 -1.410732 2.041506 -7.716112 3.851931 45.265308 0.000000 0.000000 0.000000 -2.852016 0.258999 -5.541577 -4.838701 0.746121 1.998435 8.808751 -4.974681 41.882935 0.000000 0.000000 0.000000 -1.546387 6.706775 -51.316270 0.082283 -0.018079 2.522842 -1.314458 -4.838098 52.160994 7.548711 -6.995645 -14.005301 0.000000 0.000000 0.000000 10.327612 -4.058136 0.428780 -69.089246 3.986067 -14.065229 -36.591211 -56.634544 25.440878 0.000000 0.000000 0.000000 -12.018989 -6.719911 -1.446153 60.817591 -21.628760 -24.425058 57.073739 37.774252 19.040168 0.000000 0.000000 0.000000
-0.339924 0.143197 0.197746 -0.506892 -14.842605 -82.546495 3.353759 0.343397 -7.724292 9.168918 -1.249262 -1.075884 -7.974529 3.917310 46.453421 0.000000 0.000000 0.000000 -2.664806 0.182551 -4.637428 -5.495985 0.675672 0.315946 10.060187 -4.583684 45.525602 0.000000 0.000000 0.000000 -1.555904 6.478108 -50.922277 -0.159187 0.098597 1.561487 -0.964777 -4.613713 51.642697 6.490903 -5.918196 -14.959098 0.000000 0.000000 0.000000 11.378565 -3.016333 0.041436 -69.340257 6.646932 -15.507405 -37.897896 -50.482056 22.468027 0.000000 0.000000 0.000000 -12.255925 -6.231244 -1.259439 61.375164 -21.674433 -24.536339 54.018004 35.375349 16.535332 0.000000 0.000000 0.000000
-0.339512 0.143689 0.198722 -0.650343 -14.640274 -82.635065 2.730545 0.193309 -7.692262 9.487377 -1.315963 -0.785424 -8.083407 4.260700 47.831684 0.000000 0.000000 0.000000 -2.436006 0.180866 -4.323351 -5.756134 0.763035 0.803854 10.093837 -4.619841 46.104115 0.000000 0.000000 0.000000 -1.588372 6.362882 -50.929683 -0.471082 0.243653 1.673243 -0.539382 -4.843532 51.739339 5.341757 -5.125278 -14.249619 0.000000 0.000000 0.000000 11.760364 -2.780417 -0.068436 -68.481877 8.244129 -16.245913 -39.093626 -45.338079 20.096934 0.000000 0.000000 0.000000 -11.816895 -6.382795 -1.385132 61.185360 -21.492662 -24.335131 54.089866 33.446116 15.453576 0.000000 0.000000 0.000000
-0.339280 0.146137 0.198623 -0.965238 -14.461461 -82.784107 2.062494 0.064403 -6.968674 10.123490 -1.362487 -1.158290 -8.981018 3.804940 48.728875 0.000000 0.000000 0.000000 -1.608094 0.152465 -2.978643 -7.229192 0.856020 -0.260725 11.081450 -3.665319 46.752399 0.000000 0.000000 0.000000 -1.805888 5.942432 -50.183244 -0.329891 0.176660 1.268230 -0.539417 -5.099460 51.575856 3.666363 -3.809561 -14.826917 0.000000 0.000000 0.000000 11.730162 -1.291709 -0.537802 -68.740373 8.645371 -16.302775 -38.068256 -42.078032 18.063473 0.000000 0.000000 0.000000 -11.310597 -6.662654 -1.521267 60.468335 -21.942671 -24.239998 55.857694 32.614752 15.325819 0.000000 0.000000 0.000000
-0.339221 0.148103 0.198237 -0.872654 -14.335379 -83.295746 1.321330 -0.145915 -7.807352 10.099132 -1.618891 1.119684 -8.879922 3.593806 47.727024 0.000000 0.000000 0.000000 -0.660275 0.251275 -2.697187 -8.327661 1.139794 0.816204 10.621532 -3.702366 45.611907 0.000000 0.000000 0.000000 -1.921020 5.776641 -49.791388 -0.773230 0.384295 1.274787 0.247544 -4.553414 51.123334 2.511690 -2.687961 -15.214507 0.000000 0.000000 0.000000 13.034325 -0.742211 -0.725141 -70.077460 8.759872 -16.741013 -38.279563 -41.343298 17.747536 0.000000 0.000000 0.000000 -11.038007 -6.532190 -1.558991 61.378231 -22.706601 -24.816837 57.052984 32.137424 15.644584 0.000000 0.000000 0.000000
